<svg id="eAmPyRnNXic1"
	xmlns="http://www.w3.org/2000/svg"
	xmlns:xlink="http://www.w3.org/1999/xlink" viewBox="0 0 1910.1 469.7" shape-rendering="geometricPrecision" text-rendering="geometricPrecision" project-id="fff018cda7b344f18436354df69c9c77" export-id="4d446d0befc9411d940ed1a40fa7f3dc" cached="false">
	<style>
		<![CDATA[
#eAmPyRnNXic2_to {animation: eAmPyRnNXic2_to__to 10000ms linear infinite normal forwards}@keyframes eAmPyRnNXic2_to__to { 0% {transform: translate(130.581713px,114.449994px)} 4% {transform: translate(130.581713px,114.449994px)} 6% {transform: translate(130.581713px,355.245621px)} 8% {transform: translate(130.581713px,355.245621px)} 10% {transform: translate(130.581713px,355.245621px)} 12% {transform: translate(130.581713px,355.245621px)} 14% {transform: translate(130.581713px,114.643254px)} 100% {transform: translate(130.581713px,114.643254px)}} #eAmPyRnNXic3_to {animation: eAmPyRnNXic3_to__to 10000ms linear infinite normal forwards}@keyframes eAmPyRnNXic3_to__to { 0% {transform: translate(339.25px,234.499992px)} 2% {transform: translate(130.162237px,355.296611px)} 4% {transform: translate(130.162237px,355.296611px)} 6% {transform: translate(131.001221px,114.500984px)} 8% {transform: translate(131.001221px,114.500984px)} 10% {transform: translate(336.583278px,234.849981px)} 12% {transform: translate(336.583278px,234.849981px)} 14% {transform: translate(336.583278px,234.849981px)} 100% {transform: translate(336.583278px,234.849981px)}} #eAmPyRnNXic4_to {animation: eAmPyRnNXic4_to__to 10000ms linear infinite normal forwards}@keyframes eAmPyRnNXic4_to__to { 0% {transform: translate(131.643842px,355.200012px)} 2% {transform: translate(338.543854px,233.500012px)} 4% {transform: translate(338.543854px,233.500012px)} 8% {transform: translate(338.543854px,233.500012px)} 10% {transform: translate(131.707502px,114.597646px)} 12% {transform: translate(131.707502px,114.597646px)} 14% {transform: translate(129.456092px,355.200012px)} 100% {transform: translate(129.456092px,355.200012px)}} #eAmPyRnNXic5_tr {animation: eAmPyRnNXic5_tr__tr 10000ms linear infinite normal forwards}@keyframes eAmPyRnNXic5_tr__tr { 0% {transform: translate(591.874451px,233.549995px) rotate(0deg)} 14% {transform: translate(591.874451px,233.549995px) rotate(0deg)} 15% {transform: translate(591.874451px,233.549995px) rotate(4.922542deg)} 16% {transform: translate(591.874451px,233.549995px) rotate(-5.182297deg)} 17% {transform: translate(591.874451px,233.549995px) rotate(4.922542deg)} 18% {transform: translate(591.874451px,233.549995px) rotate(-5.182297deg)} 19% {transform: translate(591.874451px,233.549995px) rotate(4.922542deg)} 20% {transform: translate(591.874451px,233.549995px) rotate(0deg)} 100% {transform: translate(591.874451px,233.549995px) rotate(0deg)}} #eAmPyRnNXic6_tr {animation: eAmPyRnNXic6_tr__tr 10000ms linear infinite normal forwards}@keyframes eAmPyRnNXic6_tr__tr { 0% {transform: translate(798.137207px,255.700005px) rotate(-0.219646deg)} 17% {transform: translate(798.137207px,255.700005px) rotate(-0.219646deg)} 18% {transform: translate(798.137207px,255.700005px) rotate(4.922542deg)} 19% {transform: translate(798.137207px,255.700005px) rotate(-5.182297deg)} 20% {transform: translate(798.137207px,255.700005px) rotate(4.922542deg)} 21% {transform: translate(798.137207px,255.700005px) rotate(-5.182297deg)} 22% {transform: translate(798.137207px,255.700005px) rotate(4.922542deg)} 23% {transform: translate(798.137207px,255.700005px) rotate(-0.219646deg)} 100% {transform: translate(798.137207px,255.700005px) rotate(-0.219646deg)}} #eAmPyRnNXic7_to {animation: eAmPyRnNXic7_to__to 10000ms linear infinite normal forwards}@keyframes eAmPyRnNXic7_to__to { 0% {transform: translate(1639.787109px,255.700005px)} 34% {transform: translate(1639.787109px,255.700005px)} 36% {transform: translate(1639.787109px,188.700005px)} 37% {transform: translate(1639.787109px,255.700005px)} 38% {transform: translate(1639.787109px,218.8px)} 39% {transform: translate(1639.787109px,255.700005px)} 40% {transform: translate(1639.787109px,237.8px)} 41% {transform: translate(1639.787109px,255.700005px)} 100% {transform: translate(1639.787109px,255.700005px)}} #eAmPyRnNXic8_tr {animation: eAmPyRnNXic8_tr__tr 10000ms linear infinite normal forwards}@keyframes eAmPyRnNXic8_tr__tr { 0% {transform: translate(937.563354px,225.599998px) rotate(0deg)} 20% {transform: translate(937.563354px,225.599998px) rotate(0deg)} 21% {transform: translate(937.563354px,225.599998px) rotate(4.922542deg)} 22% {transform: translate(937.563354px,225.599998px) rotate(-5.182297deg)} 23% {transform: translate(937.563354px,225.599998px) rotate(4.922542deg)} 24% {transform: translate(937.563354px,225.599998px) rotate(-5.182297deg)} 25% {transform: translate(937.563354px,225.599998px) rotate(4.922542deg)} 26% {transform: translate(937.563354px,225.599998px) rotate(0deg)} 100% {transform: translate(937.563354px,225.599998px) rotate(0deg)}} #eAmPyRnNXic9_tr {animation: eAmPyRnNXic9_tr__tr 10000ms linear infinite normal forwards}@keyframes eAmPyRnNXic9_tr__tr { 0% {transform: translate(1027.599152px,225.599998px) rotate(0deg)} 23% {transform: translate(1027.599152px,225.599998px) rotate(0deg)} 24% {transform: translate(1027.599152px,225.599998px) rotate(4.922542deg)} 25% {transform: translate(1027.599152px,225.599998px) rotate(-5.182297deg)} 26% {transform: translate(1027.599152px,225.599998px) rotate(4.922542deg)} 27% {transform: translate(1027.599152px,225.599998px) rotate(-5.182297deg)} 28% {transform: translate(1027.599152px,225.599998px) rotate(4.922542deg)} 29% {transform: translate(1027.599152px,225.599998px) rotate(0deg)} 100% {transform: translate(1027.599152px,225.599998px) rotate(0deg)}} #eAmPyRnNXic10_tr {animation: eAmPyRnNXic10_tr__tr 10000ms linear infinite normal forwards}@keyframes eAmPyRnNXic10_tr__tr { 0% {transform: translate(1159.946655px,255.799957px) rotate(0deg)} 26% {transform: translate(1159.946655px,255.799957px) rotate(0deg)} 27% {transform: translate(1159.946655px,255.799957px) rotate(4.922542deg)} 28% {transform: translate(1159.946655px,255.799957px) rotate(-5.182297deg)} 29% {transform: translate(1159.946655px,255.799957px) rotate(4.922542deg)} 30% {transform: translate(1159.946655px,255.799957px) rotate(-5.182297deg)} 31% {transform: translate(1159.946655px,255.799957px) rotate(4.922542deg)} 32% {transform: translate(1159.946655px,255.799957px) rotate(0deg)} 100% {transform: translate(1159.946655px,255.799957px) rotate(0deg)}} #eAmPyRnNXic11_to {animation: eAmPyRnNXic11_to__to 10000ms linear infinite normal forwards}@keyframes eAmPyRnNXic11_to__to { 0% {transform: translate(1393.320482px,255.799988px)} 31% {transform: translate(1393.320482px,255.799988px)} 33% {transform: translate(1393.320482px,186.799988px)} 34% {transform: translate(1393.320482px,255.799988px)} 35% {transform: translate(1393.320482px,218.798632px)} 36% {transform: translate(1393.320482px,255.799988px)} 37% {transform: translate(1393.320482px,237.799988px)} 38% {transform: translate(1393.320482px,255.799988px)} 100% {transform: translate(1393.320482px,255.799988px)}} #eAmPyRnNXic12_to {animation: eAmPyRnNXic12_to__to 10000ms linear infinite normal forwards}@keyframes eAmPyRnNXic12_to__to { 0% {transform: translate(1823.603333px,225.805565px)} 37% {transform: translate(1823.603333px,225.805565px)} 39% {transform: translate(1823.603333px,158.8px)} 40% {transform: translate(1823.603333px,225.805565px)} 41% {transform: translate(1823.603333px,193.8px)} 42% {transform: translate(1823.603333px,225.805565px)} 43% {transform: translate(1823.603333px,208.082594px)} 44% {transform: translate(1823.603333px,225.805565px)} 100% {transform: translate(1823.603333px,225.805565px)}} #eAmPyRnNXic19_tr {animation: eAmPyRnNXic19_tr__tr 10000ms linear infinite normal forwards}@keyframes eAmPyRnNXic19_tr__tr { 0% {transform: translate(135.33781px,207.03926px) rotate(720deg);animation-timing-function: cubic-bezier(0.415,0.08,0.115,0.955)} 77% {transform: translate(135.33781px,207.03926px) rotate(0deg)} 100% {transform: translate(135.33781px,207.03926px) rotate(0deg)}} #eAmPyRnNXic19 {animation: eAmPyRnNXic19_f_p 10000ms linear infinite normal forwards}@keyframes eAmPyRnNXic19_f_p { 0% {fill: #d2dbed} 77% {fill: #d2dbec} 100% {fill: #d2dbec}} #eAmPyRnNXic20_tr {animation: eAmPyRnNXic20_tr__tr 10000ms linear infinite normal forwards}@keyframes eAmPyRnNXic20_tr__tr { 0% {transform: translate(11.12px,29.9px) rotate(-720deg);animation-timing-function: cubic-bezier(0.415,0.08,0.115,0.955)} 77% {transform: translate(11.12px,29.9px) rotate(0deg)} 100% {transform: translate(11.12px,29.9px) rotate(0deg)}}
]]>
	</style>
	<defs>
		<linearGradient id="eAmPyRnNXic2-fill" x1="-134.20443" y1="-69.977156" x2="292.43637" y2="227.152244" spreadMethod="pad" gradientUnits="userSpaceOnUse" gradientTransform="translate(0 0)">
			<stop id="eAmPyRnNXic2-fill-0" offset="0%" stop-color="#15a7ff"/>
			<stop id="eAmPyRnNXic2-fill-1" offset="51%" stop-color="#1bb4ff"/>
			<stop id="eAmPyRnNXic2-fill-2" offset="99%" stop-color="#2ad7ff"/>
		</linearGradient>
		<linearGradient id="eAmPyRnNXic3-fill" x1="44.801676" y1="29.439204" x2="471.046676" y2="326.286404" spreadMethod="pad" gradientUnits="userSpaceOnUse" gradientTransform="translate(0 0)">
			<stop id="eAmPyRnNXic3-fill-0" offset="0%" stop-color="#ff5d15"/>
			<stop id="eAmPyRnNXic3-fill-1" offset="99%" stop-color="#ff7015"/>
		</linearGradient>
		<linearGradient id="eAmPyRnNXic4-fill" x1="0.4804" y1="343.5051" x2="321.1705" y2="372.0952" spreadMethod="pad" gradientUnits="userSpaceOnUse" gradientTransform="translate(0 0)">
			<stop id="eAmPyRnNXic4-fill-0" offset="21%" stop-color="#08bf00"/>
			<stop id="eAmPyRnNXic4-fill-1" offset="76%" stop-color="#00bf5c"/>
		</linearGradient>
		<linearGradient id="eAmPyRnNXic5-fill" x1="426.3507" y1="140.1188" x2="1121.5366" y2="515.3652" spreadMethod="pad" gradientUnits="userSpaceOnUse" gradientTransform="translate(0 0)">
			<stop id="eAmPyRnNXic5-fill-0" offset="0%" stop-color="#15a7ff"/>
			<stop id="eAmPyRnNXic5-fill-1" offset="99%" stop-color="#2ad7ff"/>
		</linearGradient>
		<linearGradient id="eAmPyRnNXic6-fill" x1="459.9829" y1="76.5778" x2="1153.4583" y2="450.8889" spreadMethod="pad" gradientUnits="userSpaceOnUse" gradientTransform="translate(0 0)">
			<stop id="eAmPyRnNXic6-fill-0" offset="0%" stop-color="#15a7ff"/>
			<stop id="eAmPyRnNXic6-fill-1" offset="99%" stop-color="#2ad7ff"/>
		</linearGradient>
		<linearGradient id="eAmPyRnNXic7-fill" x1="1301.6452" y1="76.5628" x2="1995.1205" y2="450.874" spreadMethod="pad" gradientUnits="userSpaceOnUse" gradientTransform="translate(0 0)">
			<stop id="eAmPyRnNXic7-fill-0" offset="0%" stop-color="#ff5d15"/>
			<stop id="eAmPyRnNXic7-fill-1" offset="99%" stop-color="#ff7015"/>
		</linearGradient>
		<linearGradient id="eAmPyRnNXic8-fill" x1="502.263" y1="-3.4216" x2="1192.8009" y2="369.3089" spreadMethod="pad" gradientUnits="userSpaceOnUse" gradientTransform="translate(0 0)">
			<stop id="eAmPyRnNXic8-fill-0" offset="0%" stop-color="#15a7ff"/>
			<stop id="eAmPyRnNXic8-fill-1" offset="99%" stop-color="#2ad7ff"/>
		</linearGradient>
		<linearGradient id="eAmPyRnNXic9-fill" x1="527.0082" y1="-39.2108" x2="1205.64" y2="327.1001" spreadMethod="pad" gradientUnits="userSpaceOnUse" gradientTransform="translate(0 0)">
			<stop id="eAmPyRnNXic9-fill-0" offset="0%" stop-color="#15a7ff"/>
			<stop id="eAmPyRnNXic9-fill-1" offset="99%" stop-color="#2ad7ff"/>
		</linearGradient>
		<linearGradient id="eAmPyRnNXic10-fill" x1="511.7512" y1="-94.1608" x2="1230.7312" y2="293.9292" spreadMethod="pad" gradientUnits="userSpaceOnUse" gradientTransform="translate(0 0)">
			<stop id="eAmPyRnNXic10-fill-0" offset="0%" stop-color="#15a7ff"/>
			<stop id="eAmPyRnNXic10-fill-1" offset="99%" stop-color="#2ad7ff"/>
		</linearGradient>
		<linearGradient id="eAmPyRnNXic11-fill" x1="1247.8864" y1="255.7801" x2="1542.4862" y2="255.7801" spreadMethod="pad" gradientUnits="userSpaceOnUse" gradientTransform="translate(0 0)">
			<stop id="eAmPyRnNXic11-fill-0" offset="0%" stop-color="#ff5d15"/>
			<stop id="eAmPyRnNXic11-fill-1" offset="99%" stop-color="#ff7015"/>
		</linearGradient>
		<linearGradient id="eAmPyRnNXic12-fill" x1="1737.11" y1="225.7989" x2="1910.1174" y2="225.7989" spreadMethod="pad" gradientUnits="userSpaceOnUse" gradientTransform="translate(0 0)">
			<stop id="eAmPyRnNXic12-fill-0" offset="0%" stop-color="#ff5d15"/>
			<stop id="eAmPyRnNXic12-fill-1" offset="99%" stop-color="#ff7015"/>
		</linearGradient>
		<linearGradient id="eAmPyRnNXic13-fill" x1="0.5" y1="0" x2="0.5" y2="1" spreadMethod="pad" gradientUnits="objectBoundingBox" gradientTransform="translate(0 0)">
			<stop id="eAmPyRnNXic13-fill-0" offset="0%" stop-color="rgba(255,255,255,0)"/>
			<stop id="eAmPyRnNXic13-fill-1" offset="100%" stop-color="#010022"/>
		</linearGradient>
	</defs>
	<g id="eAmPyRnNXic2_to" transform="translate(130.581713,114.449994)">
		<path d="M260,109.8L198.7,4.2c-1.4-2.7-4.3-4.3-7.3-4.2L69.3,0.3c-3,0-5.9,1.7-7.4,4.3L1.1,110.6c-1.5,2.6-1.5,5.9.1,8.5L62.5,224.7c1.4,2.7,4.3,4.3,7.3,4.2l122.1-.4c3,0,5.9-1.7,7.4-4.3l60.8-106c1.5-2.6,1.4-5.8-.1-8.4Z" transform="translate(-130.581713,-114.449994)" fill="url(#eAmPyRnNXic2-fill)" stroke-miterlimit="1"/>
	</g>
	<g id="eAmPyRnNXic3_to" transform="translate(339.25,234.499992)">
		<path d="M468,228.7L408,125.5c-1.9-3.4-5.5-5.5-9.4-5.4l-119.3.3c-3.9,0-7.5,2.1-9.4,5.5L210.5,229.4c-1.9,3.4-1.9,7.5,0,10.9l60,103.2c1.9,3.4,5.5,5.5,9.4,5.4l119.3-.3c3.9,0,7.5-2.1,9.4-5.5L468,239.6c1.9-3.4,1.9-7.5,0-10.9Z" transform="translate(-339.25,-234.499992)" fill="url(#eAmPyRnNXic3-fill)" stroke-miterlimit="1"/>
	</g>
	<g id="eAmPyRnNXic4_to" transform="translate(131.643842,355.200012)">
		<path d="M259.1,347.1l-57.3-98.7c-2.8-4.7-7.8-7.7-13.3-7.7l-114,.3c-5.5,0-10.6,2.9-13.3,7.7l-57,99.2c-2.7,4.8-2.7,10.6,0,15.4L61.5,462c2.8,4.7,7.8,7.7,13.3,7.7l114.1-.3c5.5,0,10.6-2.9,13.3-7.7l56.8-99c2.8-4.8,2.8-10.7.1-15.6Z" transform="translate(-131.643842,-355.200012)" fill="url(#eAmPyRnNXic4-fill)" stroke-miterlimit="1"/>
	</g>
	<g id="eAmPyRnNXic5_tr" transform="translate(591.874451,233.549995) rotate(0)">
		<path d="M691.3,131.8c0,16.2-13.1,29.3-29.3,29.3h-140.7c-1.4,0-2.1.7-2.1,2.2v140.5c0,1.5.7,2.2,2.1,2.2h165.4c2.6,0,4.7,1.9,5,4.5c1.1,12.2,4.1,21.9,10.3,29.2c2.8,3.3.6,8.3-3.7,8.3h-177c-11.4,0-21-4.3-28.9-12.9s-11.9-19-11.9-31.3v-140.5c0-12.3,4-22.7,11.9-31.3s17.6-12.9,28.9-12.9h165c2.8,0,5,2.2,5,5v7.7Z" transform="translate(-591.874451,-233.549995)" fill="url(#eAmPyRnNXic5-fill)" stroke-miterlimit="1"/>
	</g>
	<g id="eAmPyRnNXic6_tr" transform="translate(798.137207,255.700005) rotate(-0.219646)">
		<path d="M837.9,163.6c11.2,0,20.7,4.3,28.6,12.9c7.8,8.4,12.1,19.5,11.9,31v64.3c0,2.8-2.2,5-5,5h-124.5c-2.8,0-5,2.2-5,5v22.3c0,1.5.7,2.2,2.1,2.2h127.7c2.6,0,4.7,2,5,4.5c1,10.8,5.1,21.8,11,29.1c2.6,3.2.2,8.1-3.9,8.1L746,347.9c-11.2,0-20.7-4.3-28.6-12.9-7.8-8.4-12.1-19.5-11.9-31v-96.7c-.2-11.5,4.1-22.6,11.9-31c7.9-8.6,17.5-12.9,28.6-12.9h91.9v.2Zm-94,71.3h91c2.8,0,5-2.2,5-5v-22.3c0-1.5-.7-2.2-2.1-2.2h-91.9c-1.4,0-2.1.7-2.1,2.2l.1,27.3v0Z" transform="translate(-798.137207,-255.700005)" fill="url(#eAmPyRnNXic6-fill)" stroke-miterlimit="1"/>
	</g>
	<g id="eAmPyRnNXic7_to" transform="translate(1639.787109,255.700005)">
		<path d="M1679.5,163.6c11.2,0,20.7,4.3,28.6,12.9c7.8,8.4,12.1,19.5,11.9,31v64.3c0,2.8-2.2,5-5,5h-124.5c-2.8,0-5,2.2-5,5v22.3c0,1.5.7,2.2,2.1,2.2h127.7c2.6,0,4.7,2,5,4.5c1,10.8,5.1,21.8,11,29.1c2.6,3.2.2,8.1-3.9,8.1l-139.7-.1c-11.2,0-20.7-4.3-28.6-12.9-7.8-8.4-12.1-19.5-11.9-31v-96.7c-.2-11.5,4.1-22.6,11.9-31c7.9-8.6,17.5-12.9,28.6-12.9h91.9l-.1.2Zm-94,71.3h91c2.8,0,5-2.2,5-5v-22.3c0-1.5-.7-2.2-2.1-2.2h-91.9c-1.4,0-2.1.7-2.1,2.2l.1,27.3v0Z" transform="translate(-1639.787109,-255.700005)" fill="url(#eAmPyRnNXic7-fill)" stroke-miterlimit="1"/>
	</g>
	<g id="eAmPyRnNXic8_tr" transform="translate(937.563354,225.599998) rotate(0)">
		<path d="M893.5,103.2h33.8c2.8,0,5,2.2,5,5v195.9c0,1.5.6,2.2,1.8,2.2l29.3-.4c2.6,0,4.8,2,5,4.6c1.2,14,6.7,23.3,12,29.2c2.8,3.2.5,8.3-3.8,8.3h-42.5c-11.2,0-20.7-4.3-28.6-12.9-7.8-8.4-12.1-19.5-11.9-31l-.1-200.9v0Z" transform="translate(-937.563354,-225.599998)" fill="url(#eAmPyRnNXic8-fill)" stroke-miterlimit="1"/>
	</g>
	<g id="eAmPyRnNXic9_tr" transform="translate(1027.599152,225.599998) rotate(0)">
		<path d="M989.6,103.2h28.8c2.8,0,5,2.2,5,5v195.9c0,1.5.6,2.2,1.8,2.2h28.7c2.7,0,4.9,2.1,5,4.8.6,13.7,5.7,22.9,10.6,28.7c2.8,3.2.4,8.2-3.9,8.2l-40.6-.1c-11.2,0-20.7-4.3-28.6-12.9-7.8-8.4-12.1-19.5-11.9-31v-195.8c.1-2.8,2.3-5,5.1-5Z" transform="translate(-1027.599152,-225.599998)" fill="url(#eAmPyRnNXic9-fill)" stroke-miterlimit="1"/>
	</g>
	<g id="eAmPyRnNXic10_tr" transform="translate(1159.946655,255.799957) rotate(0)">
		<path d="M1246.1,199.9c.3,2.9-2,5.5-5,5.5l-127.2-.1c-1.4,0-2.1.7-2.1,2.2v25.4c0,1.3.7,1.9,2.1,1.9h91.9c11.4,0,20.9,4.3,28.8,12.9s11.7,18.9,11.7,31v25.4c0,12.1-3.9,22.4-11.7,31s-17.4,12.9-28.8,12.9h-91.8c-11.2,0-20.7-4.3-28.6-12.9-6.6-7.2-10.5-14.1-11.6-23.3-.3-2.9,2-5.5,5-5.5h127.2c1.4,0,2.1-.7,2.1-2.2v-25.4c0-1.3-.7-1.9-2.1-1.9h-91.9c-11.2,0-20.7-4.3-28.6-12.9-7.8-8.4-12.1-19.5-11.9-31v-25.4c-.2-11.5,4.1-22.6,11.9-31c7.9-8.6,17.5-12.9,28.6-12.9h91.9c11.4,0,20.9,4.3,28.8,12.9c6.6,7.2,10.3,14.2,11.3,23.4Z" transform="translate(-1159.946655,-255.799957)" fill="url(#eAmPyRnNXic10-fill)" stroke-miterlimit="1"/>
	</g>
	<g id="eAmPyRnNXic11_to" transform="translate(1393.320482,255.799988)">
		<path d="M1498,171.9c1.8-5,6.5-8.3,11.8-8.3h27.7c4.1,0,6.5,4.7,4,8-4.1,5.4-7.1,12.2-8.9,17.6l-52.1,150.9c-1.6,4.7-6.1,7.9-11.1,7.9h-13.8c-4.8,0-9-2.9-10.9-7.2l-46.8-112.4c-.4-.9-1.3-1.3-2.2-.9-.4.2-.7.5-.9.9L1350,340.6c-1.8,4.5-6.2,7.4-11,7.4h-13.5c-4.9,0-9.3-3.1-11-7.7l-56.1-153.1c0-.1-.1-.2-.1-.3-2.1-4.8-5.2-10.3-9.3-15.1-2.7-3.2-.4-8.2,3.9-8.2h29.5c5.3,0,10,3.2,11.8,8.2l2.4,6.4l31.1,82.2c1.6,4.3,7.6,4.3,9.3.1l38-94.3c.6-1.5,2.1-2.5,3.7-2.5h34.6c1.6,0,3,1,3.6,2.4l40.3,95.1c1.8,4.2,7.8,4,9.3-.3l30.1-85.3l1.4-3.7Z" transform="translate(-1395.178345,-255.799988)" fill="url(#eAmPyRnNXic11-fill)" stroke-miterlimit="1"/>
	</g>
	<g id="eAmPyRnNXic12_to" transform="translate(1823.603333,225.805565)">
		<path d="M1869.6,163.6c11.2,0,20.7,4.3,28.6,12.9c7.8,8.4,12.1,19.5,11.9,31v96.7c.2,11.5-4.1,22.6-11.9,31-7.9,8.6-17.5,12.9-28.6,12.9c0,0-85,.7-94.1,0-18-1.3-38.4-11.8-38.4-48.3v-191.6c0-2.8,2.2-5,5-5h28.5c2.8,0,5,2.2,5,5v50.4c0,2.8,2.2,5,5,5h89Zm2,140.6v-96.7c0-1.5-.7-2.2-2.1-2.2h-91.9c-1.4,0-2.1.7-2.1,2.2v96.7c0,1.5.7,2.2,2.1,2.2h91.9c1.4,0,2.1-.7,2.1-2.2Z" transform="translate(-1823.603333,-225.805565)" fill="url(#eAmPyRnNXic12-fill)" stroke-miterlimit="1"/>
	</g>

	
</svg>
